<?xml version="1.0" encoding="UTF-8"?>
<!DOCTYPE svg PUBLIC "-//W3C//DTD SVG 1.1//EN" "http://www.w3.org/Graphics/SVG/1.1/DTD/svg11.dtd">
<!-- Creator: CorelDRAW -->
<svg xmlns="http://www.w3.org/2000/svg" xml:space="preserve" width="15.94mm" height="5.5887mm" version="1.1" style="shape-rendering:geometricPrecision; text-rendering:geometricPrecision; image-rendering:optimizeQuality; fill-rule:evenodd; clip-rule:evenodd"
viewBox="0 0 167.07 58.57"
 xmlns:xlink="http://www.w3.org/1999/xlink"
 xmlns:xodm="http://www.corel.com/coreldraw/odm/2003">
 <defs>
  <style type="text/css">
   <![CDATA[
    .fil2 {fill:#FEFEFE}
    .fil3 {fill:#FEFEFE;fill-rule:nonzero}
    .fil1 {fill:#FEFEFE;fill-rule:nonzero}
    .fil0 {fill:url(#id0)}
   ]]>
  </style>
  <linearGradient id="id0" gradientUnits="userSpaceOnUse" x1="7.07" y1="12.44" x2="20.02" y2="31.58">
   <stop offset="0" style="stop-opacity:1; stop-color:#EC268F"/>
   <stop offset="0.290196" style="stop-opacity:1; stop-color:#00AFEF"/>
   <stop offset="0.541176" style="stop-opacity:1; stop-color:#373435"/>
   <stop offset="1" style="stop-opacity:1; stop-color:#FFF212"/>
  </linearGradient>
 </defs>
 <g id="Camada_x0020_1">
  <metadata id="CorelCorpID_0Corel-Layer"/>
  <g id="_1769149232928">
   <path class="fil0" d="M13.96 28.36c-0.46,-0.07 -0.93,-0.01 -1.42,-0.12 -1.02,-0.21 -2.22,-0.92 -2.56,-1.91 -0.65,-1.88 0.88,-3.06 2.17,-3.57 1.42,-0.55 3.52,-0.72 5.17,-0.82 0.99,-0.06 1.84,0 2.81,0.09 0.54,0.05 2.27,0.42 2.6,0.29 -2.08,-0.57 -4.86,-1.55 -6.82,-2.45 -1.37,-0.63 -3.18,-1.65 -4.4,-2.54 -0.66,-0.48 -2.04,-1.61 -2.48,-2.17 -0.18,-0.22 -0.33,-0.39 -0.51,-0.63 -0.16,-0.21 -0.35,-0.46 -0.5,-0.7 -0.59,-0.96 -1.19,-2.15 -0.81,-3.63 0.31,-1.21 1.09,-2.01 2.45,-2.19 2.17,-0.29 4.48,1.9 5.94,3.23 0.43,0.39 0.73,0.77 1.13,1.16l1.12 1.23c1.01,1.02 3.36,4.2 4,5.29 2.06,3.48 1.95,2.61 1.88,7.3 -0.03,2.07 -0.24,6.5 0.74,8.14l0 -1.03c-0,-0.01 -0.01,-0.02 -0.01,-0.04 -0.02,-0.06 -0.06,-0.18 -0.11,-0.32 -0.05,-0.14 -0.1,-0.31 -0.14,-0.5 -0.04,-0.19 -0.07,-0.39 -0.1,-0.56 -0.03,-0.17 -0.05,-0.31 -0.08,-0.48 -0.02,-0.17 -0.04,-0.36 -0.06,-0.52 -0.02,-0.16 -0.03,-0.28 -0.04,-0.48 -0.01,-0.19 -0.02,-0.46 -0.03,-0.76 -0,-0.3 0,-0.65 0,-1 0,-0.35 0,-0.71 -0,-1.1 0,-0.4 0,-0.83 -0,-1.28 -0,-0.45 -0,-0.91 -0,-1.4 -0,-0.49 0,-1 0,-1.44 0,-0.44 -0,-0.81 0,-1.16 0,-0.36 0,-0.71 0,-0.9 0,-0.19 -0,-0.23 -0,-0.26 -0,-0.02 -0,-0.03 -0,-0.04 0,-0.01 0,-0.01 0,-0.01 0,-0 0,-0 0,-0 0,0 0,-0 0,-0 0,0 0,0 0.12,0.25 0.11,0.23 0.32,0.66 0.44,0.91l0 -3.2 -0.74 0 0 0.01c-0.07,-0.08 -0.02,0.01 -0.1,-0.14l-1.3 -3c-0.47,-0.99 -1.08,-2.08 -1.65,-2.94 -0.93,-1.41 -1.82,-2.74 -2.88,-4 -1.88,-2.23 -3.41,-3.86 -5.8,-5.66 -1.7,-1.28 -3.48,-2.45 -6.12,-3.05 -1.32,-0.3 -2.68,-0.4 -3.88,0.18 -0.94,0.45 -1.79,1.3 -1.98,2.62 -0.19,1.35 0.55,2.52 1.08,3.42 1.92,3.28 1.98,7.85 3.54,10.23 0.55,0.83 1.45,1.66 2.4,2.19 1.03,0.57 2.25,0.8 3.49,1.08 -0.31,0.36 -5.53,1.76 -4.33,6.99 0.37,1.61 1.28,2.69 2.04,3.75 0.83,1.16 1.58,2.23 2.34,3.51 0.83,1.4 1.26,2.36 2.67,3.12 1.58,0.85 3.16,0.65 4.5,-0.27 1.55,-1.06 2.52,-3.56 3.29,-5.43 0.28,-0.69 0.5,-1.44 0.73,-2.18 -0.37,0.23 -0.64,0.7 -0.91,1.03 -0.17,0.21 -0.27,0.31 -0.46,0.51 -0.15,0.15 -0.31,0.35 -0.48,0.5l-1.62 1.31c-0.17,0.13 -0.38,0.3 -0.6,0.43 -2.12,1.25 -3.73,-0.6 -3.12,-2.61 0.08,-0.27 0.25,-0.51 0.28,-0.74 0.19,-0.11 0.33,-0.37 0.43,-0.55 0.11,-0.02 0.88,-0.76 0.98,-0.86 0.23,-0.22 0.91,-0.73 0.95,-0.89 -0.65,0.33 -1.61,0.49 -2.38,0.66 -0.25,0.03 -0.72,0.02 -0.89,0.14z"/>
   <g>
    <path class="fil1" d="M42.07 48.57l-15.99 -33.2 0 21.96c0,2.1 0.13,4.02 0.39,5.78 0.26,1.75 0.56,3.1 0.9,4.04 0.34,0.94 0.73,1.77 1.15,2.47 0.43,0.71 0.74,1.14 0.93,1.32 0.19,0.17 0.35,0.3 0.48,0.38l-0.13 0.64 -8.67 0 0 -0.83c0.04,0 0.19,-0.12 0.45,-0.35 0.26,-0.24 0.57,-0.69 0.93,-1.35 0.36,-0.66 0.72,-1.48 1.06,-2.44 0.34,-0.96 0.64,-2.3 0.9,-4.01 0.26,-1.71 0.38,-3.62 0.38,-5.72l0 -12.65c0,-2.14 -0.14,-4.08 -0.42,-5.81 -0.28,-1.73 -0.58,-3.08 -0.9,-4.05 -0.32,-0.96 -0.69,-1.79 -1.12,-2.47 -0.43,-0.69 -0.74,-1.12 -0.93,-1.32 -0.19,-0.19 -0.35,-0.33 -0.48,-0.42l0.06 -0.58 10.53 0 14.26 29.15 11.49 -29.15 11.43 0 0 0.84 -0.06 0c-0.04,0 -0.18,0.11 -0.42,0.32 -0.24,0.21 -0.55,0.65 -0.93,1.32 -0.38,0.66 -0.75,1.49 -1.09,2.47 -0.34,0.98 -0.64,2.33 -0.9,4.04 -0.26,1.71 -0.39,3.62 -0.39,5.72l0 12.65c0.04,2.14 0.19,4.08 0.45,5.81 0.26,1.73 0.55,3.07 0.87,4.01 0.32,0.94 0.71,1.77 1.16,2.47 0.45,0.71 0.76,1.16 0.93,1.35 0.17,0.19 0.32,0.33 0.45,0.42l-0.06 0.58 -15.03 0 0 -0.83c0.04,0 0.18,-0.11 0.42,-0.32 0.24,-0.21 0.55,-0.65 0.93,-1.32 0.38,-0.66 0.75,-1.49 1.09,-2.47 0.34,-0.99 0.64,-2.33 0.9,-4.05 0.26,-1.71 0.39,-3.62 0.39,-5.72l0.19 -23.89 -14.25 35.19 -1.35 0z"/>
    <path class="fil2" d="M103.01 42.47c0.64,1.71 1.32,3.19 2.02,4.43 0.71,1.24 1.35,2.14 1.93,2.7 0.58,0.56 1.05,0.95 1.41,1.19 0.36,0.23 0.69,0.4 0.99,0.48l0 0.71 -16.31 0 0 -0.77c0.21,-0.13 0.45,-0.3 0.71,-0.51 0.26,-0.21 0.58,-0.58 0.96,-1.09 0.38,-0.51 0.67,-1.08 0.87,-1.7 0.19,-0.62 0.27,-1.42 0.22,-2.41 -0.04,-0.98 -0.28,-2.03 -0.71,-3.15l-1.26 -3.62 0 0 -0.72 -2.23 -0.02 -0.05 0 0 -0.04 -0.12 -0.04 -0.13 0 0 -6.72 -19.46c-2.95,8.04 -5.33,14.53 -7.16,19.46l0 0 -0.1 0.27 -0.71 2 0 0c-0.81,2.22 -1.23,3.41 -1.27,3.56 -0.43,1.24 -0.64,2.41 -0.64,3.5 0,1.09 0.12,1.96 0.35,2.6 0.23,0.64 0.56,1.23 0.96,1.77 0.41,0.53 0.71,0.89 0.9,1.06 0.19,0.17 0.35,0.28 0.48,0.32l-0.13 0.71 -9.25 0 0 -0.77c0.39,-0.17 0.8,-0.47 1.25,-0.9 0.45,-0.43 1.16,-1.42 2.12,-2.99 0.96,-1.56 1.89,-3.48 2.79,-5.75 0.13,-0.43 1.16,-3.27 3.08,-8.54 1.93,-5.27 3.81,-10.45 5.65,-15.54l2.76 -7.58 3.79 0c7.06,19.65 11,30.5 11.82,32.55z"/>
    <path class="fil1" d="M125.29 51.97l-15.03 0 0 -0.83c0.04,0 0.19,-0.12 0.45,-0.35 0.26,-0.24 0.57,-0.69 0.93,-1.35 0.36,-0.66 0.72,-1.48 1.06,-2.44 0.34,-0.96 0.64,-2.3 0.9,-4.01 0.26,-1.71 0.38,-3.62 0.38,-5.72l0 -12.65c0,-2.14 -0.14,-4.08 -0.42,-5.81 -0.28,-1.73 -0.58,-3.07 -0.9,-4.01 -0.32,-0.94 -0.69,-1.77 -1.12,-2.47 -0.43,-0.71 -0.74,-1.15 -0.93,-1.35 -0.19,-0.19 -0.35,-0.33 -0.48,-0.42l0.06 -0.58 15.02 0 0 0.84 0 -0.06c-0.04,0 -0.18,0.12 -0.42,0.35 -0.23,0.24 -0.55,0.69 -0.93,1.35 -0.39,0.66 -0.75,1.48 -1.09,2.44 -0.34,0.96 -0.64,2.31 -0.9,4.05 -0.26,1.73 -0.39,3.65 -0.39,5.75l0 12.65c0,2.14 0.14,4.08 0.42,5.81 0.28,1.73 0.58,3.07 0.9,4.01 0.32,0.94 0.7,1.77 1.12,2.47 0.43,0.71 0.74,1.14 0.93,1.32 0.19,0.17 0.35,0.3 0.48,0.38l-0.06 0.64z"/>
    <path class="fil2" d="M159.52 42.47c0.64,1.71 1.32,3.19 2.02,4.43 0.71,1.24 1.35,2.14 1.93,2.7 0.58,0.56 1.05,0.95 1.41,1.19 0.36,0.23 0.7,0.4 1,0.48l0 0.71 -16.31 0 0 -0.77c0.21,-0.13 0.45,-0.3 0.71,-0.51 0.26,-0.21 0.58,-0.58 0.96,-1.09 0.38,-0.51 0.67,-1.08 0.87,-1.7 0.19,-0.62 0.27,-1.42 0.22,-2.41 -0.04,-0.98 -0.28,-2.03 -0.71,-3.15l-0.93 -2.67 -1.06 -3.21 -0.01 -0.03 0 0 -0.03 -0.08 -0.03 -0.1 -0 0 -6.74 -19.53c-2.96,8.08 -5.36,14.6 -7.19,19.55l-0 0 -0.06 0.17 -1.53 4.23 0.02 0c-0.29,0.81 -0.45,1.26 -0.47,1.35 -0.43,1.24 -0.64,2.41 -0.64,3.5 0,1.09 0.12,1.96 0.35,2.6 0.24,0.64 0.56,1.23 0.96,1.77 0.41,0.53 0.71,0.89 0.9,1.06 0.19,0.17 0.35,0.28 0.48,0.32l-0.13 0.71 -9.25 0 0 -0.77c0.38,-0.17 0.8,-0.47 1.25,-0.9 0.45,-0.43 1.16,-1.42 2.12,-2.99 0.96,-1.56 1.89,-3.48 2.79,-5.75 0.13,-0.43 1.16,-3.27 3.08,-8.54 1.93,-5.27 3.81,-10.45 5.65,-15.54l2.76 -7.58 3.79 0c7.06,19.65 11,30.5 11.82,32.55z"/>
    <path class="fil3" d="M22.63 54.94c-0.99,0 -1.56,0.57 -1.56,1.55l0 0.52c0,0.98 0.56,1.55 1.56,1.55 0.44,0 0.79,-0.11 1.04,-0.31l0.07 0.23 0.39 0 0 -2.04 -1.6 0 0 0.63 0.88 0 0 0.21c0,0.41 -0.3,0.66 -0.78,0.66 -0.54,0 -0.84,-0.34 -0.84,-0.92l0 -0.52c0,-0.59 0.3,-0.92 0.84,-0.92 0.47,0 0.78,0.26 0.78,0.66l0.71 0c0,-0.73 -0.51,-1.29 -1.49,-1.29l0 0zm6.78 1.19c0,-0.71 -0.47,-1.11 -1.3,-1.11l-1.69 0 0 3.46 0.71 0 0 -1.24 0.7 0 0.71 1.24 0.82 0 -0.74 -1.3c0.51,-0.14 0.79,-0.5 0.79,-1.05l0 0zm-2.28 0.48l0 -0.96 0.98 0c0.38,0 0.59,0.18 0.59,0.48 0,0.3 -0.21,0.48 -0.59,0.48l-0.98 0zm5.54 -1.58l-1.34 3.46 0.76 0 0.29 -0.73 1.43 0 0.29 0.73 0.76 0 -1.34 -3.46 -0.85 0zm-0.24 -0.92l0.39 0.48 0.73 -0.63 -0.39 -0.48 -0.73 0.63zm0.19 3.01l0.47 -1.22 0.47 1.22 -0.95 0zm4.31 -2.1l0 3.46 0.71 0 0 -1.41 1.68 0 0 -0.63 -1.68 0 0 -0.79 2.03 0 0 -0.63 -2.75 0zm4.88 0l0 3.46 0.71 0 0 -3.46 -0.71 0zm2.96 1.47l0 0.52c0,0.98 0.56,1.55 1.56,1.55 0.98,0 1.49,-0.56 1.49,-1.29l-0.71 0c0,0.41 -0.31,0.66 -0.78,0.66 -0.54,0 -0.84,-0.34 -0.84,-0.92l0 -0.52c0,-0.59 0.3,-0.92 0.84,-0.92 0.47,0 0.78,0.26 0.78,0.66l0.71 0c0,-0.73 -0.51,-1.29 -1.49,-1.29 -0.99,0 -1.56,0.57 -1.56,1.55l0 0zm6.33 -1.47l-1.34 3.46 0.76 0 0.29 -0.73 1.43 0 0.29 0.73 0.76 0 -1.34 -3.46 -0.85 0zm-0.05 2.1l0.47 -1.23 0.47 1.23 -0.95 0zm9.28 -2.1l-1.43 0 0 3.46 1.43 0c0.99,0 1.56,-0.57 1.56,-1.47l0 -0.52c0,-0.9 -0.56,-1.47 -1.56,-1.47l0 0zm0 2.83l-0.72 0 0 -2.2 0.72 0c0.54,0 0.84,0.34 0.84,0.84l0 0.52c0,0.5 -0.3,0.84 -0.84,0.84l0 0zm3.79 -2.83l0 3.46 0.71 0 0 -3.46 -0.71 0zm4.52 -0.08c-0.99,0 -1.56,0.57 -1.56,1.55l0 0.52c0,0.98 0.56,1.55 1.56,1.55 0.44,0 0.79,-0.11 1.04,-0.31l0.07 0.23 0.39 0 0 -2.04 -1.6 0 0 0.63 0.88 0 0 0.21c0,0.41 -0.3,0.66 -0.78,0.66 -0.54,0 -0.84,-0.34 -0.84,-0.92l0 -0.52c0,-0.59 0.3,-0.92 0.84,-0.92 0.47,0 0.78,0.26 0.78,0.66l0.71 0c0,-0.73 -0.51,-1.29 -1.49,-1.29l0 0zm3.79 0.08l0 3.46 0.71 0 0 -3.46 -0.71 0zm5.75 0l-2.95 0 0 0.63 1.12 0 0 2.83 0.71 0 0 -2.83 1.12 0 0 -0.63zm3.15 0l-1.34 3.46 0.76 0 0.29 -0.73 1.43 0 0.29 0.73 0.76 0 -1.34 -3.46 -0.85 0zm-0.05 2.1l0.47 -1.23 0.47 1.23 -0.95 0zm4.31 -2.1l0 3.46 2.6 0 0 -0.63 -1.89 0 0 -2.83 -0.71 0zm7 1.61c-0.39,0.19 -0.6,0.47 -0.6,0.84 0,0.7 0.51,1.1 1.41,1.1 0.41,0 0.78,-0.14 1.09,-0.41l0.42 0.32 0.51 -0.51 -0.48 -0.37c0.09,-0.15 0.17,-0.31 0.24,-0.5l-0.62 -0.35c-0.07,0.15 -0.13,0.29 -0.19,0.41l-0.51 -0.39c0.44,-0.14 0.84,-0.34 0.84,-0.85 0,-0.63 -0.44,-0.99 -1.2,-0.99 -0.78,0 -1.24,0.34 -1.24,0.94 0,0.23 0.11,0.49 0.32,0.75l0 0zm0.11 0.89c0,-0.17 0.13,-0.31 0.38,-0.43l0.86 0.65c-0.16,0.12 -0.36,0.19 -0.62,0.19 -0.35,0 -0.62,-0.15 -0.62,-0.42l0 0zm0.28 -1.64c0,-0.19 0.19,-0.3 0.52,-0.3 0.33,0 0.51,0.11 0.51,0.31 0,0.26 -0.33,0.34 -0.72,0.45 -0.2,-0.18 -0.32,-0.32 -0.32,-0.46l0 0zm8.12 -0.86l-1.69 0 0 3.46 0.71 0 0 -1.24 0.98 0c0.83,0 1.3,-0.4 1.3,-1.11 0,-0.71 -0.47,-1.11 -1.3,-1.11l0 0zm-0.98 1.59l0 -0.96 0.98 0c0.38,0 0.59,0.18 0.59,0.48 0,0.3 -0.21,0.48 -0.59,0.48l-0.98 0zm4.44 -1.59l0 3.46 2.75 0 0 -0.63 -2.03 0 0 -0.79 1.68 0 0 -0.63 -1.68 0 0 -0.79 2.03 0 0 -0.63 -2.75 0zm7.95 1.11c0,-0.71 -0.47,-1.11 -1.3,-1.11l-1.69 0 0 3.46 0.71 0 0 -1.24 0.7 0 0.71 1.24 0.82 0 -0.74 -1.3c0.51,-0.14 0.79,-0.5 0.79,-1.05l0 0zm-2.28 0.48l0 -0.96 0.98 0c0.38,0 0.59,0.18 0.59,0.48 0,0.3 -0.21,0.48 -0.59,0.48l-0.98 0zm5.79 -1.68c-0.86,0 -1.35,0.41 -1.35,1.1 0,1.65 2.3,0.58 2.3,1.45 0,0.29 -0.25,0.45 -0.79,0.45 -0.53,0 -0.88,-0.24 -0.88,-0.66l-0.71 0c0,0.82 0.61,1.29 1.59,1.29 0.99,0 1.51,-0.44 1.51,-1.13 0,-1.65 -2.3,-0.55 -2.3,-1.41 0,-0.29 0.23,-0.45 0.64,-0.45 0.53,0 0.83,0.24 0.83,0.66l0.71 0c0,-0.82 -0.56,-1.29 -1.54,-1.29l0 0zm3.77 2.07c0,0.98 0.56,1.55 1.56,1.55 0.99,0 1.56,-0.56 1.56,-1.55l0 -0.52c0,-0.98 -0.56,-1.55 -1.56,-1.55 -0.99,0 -1.56,0.57 -1.56,1.55l0 0.52zm2.4 -0.52l0 0.52c0,0.59 -0.3,0.92 -0.84,0.92 -0.54,0 -0.84,-0.34 -0.84,-0.92l0 -0.52c0,-0.59 0.3,-0.92 0.84,-0.92 0.54,0 0.84,0.33 0.84,0.92zm2.96 -1.47l0 3.46 0.71 0 0 -2.44 1.33 2.44 0.86 0 0 -3.46 -0.71 0 0 2.44 -1.33 -2.44 -0.86 0zm6.31 0l-1.34 3.46 0.76 0 0.28 -0.73 1.44 0 0.29 0.73 0.76 0 -1.34 -3.46 -0.86 0zm-0.05 2.1l0.47 -1.23 0.47 1.23 -0.95 0zm4.31 -2.1l0 3.46 2.6 0 0 -0.63 -1.89 0 0 -2.83 -0.71 0zm4.69 0l0 3.46 0.71 0 0 -3.46 -0.71 0zm4.72 0.63l-1.82 2.2 0 0.63 2.75 0 0 -0.63 -1.82 0 1.82 -2.2 0 -0.63 -2.75 0 0 0.63 1.82 0zm4.19 -0.63l-1.34 3.46 0.76 0 0.28 -0.73 1.44 0 0.29 0.73 0.76 0 -1.34 -3.46 -0.86 0zm-0.05 2.1l0.47 -1.23 0.47 1.23 -0.95 0zm5.75 -2.1l-1.43 0 0 3.46 1.43 0c0.99,0 1.56,-0.57 1.56,-1.47l0 -0.52c0,-0.9 -0.57,-1.47 -1.56,-1.47l0 0zm0 2.83l-0.72 0 0 -2.2 0.72 0c0.54,0 0.84,0.34 0.84,0.84l0 0.52c0,0.5 -0.31,0.84 -0.84,0.84l0 0zm3.69 -0.84c0,0.98 0.56,1.55 1.56,1.55 0.99,0 1.56,-0.56 1.56,-1.55l0 -0.52c0,-0.98 -0.56,-1.55 -1.56,-1.55 -0.99,0 -1.56,0.57 -1.56,1.55l0 0.52zm2.4 -0.52l0 0.52c0,0.59 -0.3,0.92 -0.84,0.92 -0.54,0 -0.84,-0.34 -0.84,-0.92l0 -0.52c0,-0.59 0.3,-0.92 0.84,-0.92 0.54,0 0.84,0.33 0.84,0.92zm4.27 -1.55c-0.86,0 -1.35,0.41 -1.35,1.1 0,1.65 2.3,0.58 2.3,1.45 0,0.29 -0.25,0.45 -0.79,0.45 -0.53,0 -0.88,-0.24 -0.88,-0.66l-0.71 0c0,0.82 0.61,1.29 1.59,1.29 0.99,0 1.51,-0.44 1.51,-1.13 0,-1.65 -2.29,-0.55 -2.29,-1.41 0,-0.29 0.23,-0.45 0.64,-0.45 0.53,0 0.83,0.24 0.83,0.66l0.71 0c0,-0.82 -0.56,-1.29 -1.54,-1.29l0 0z"/>
   </g>
  </g>
 </g>
</svg>
